<svg width="233" height="28" viewBox="0 0 233 28" fill="none" xmlns="http://www.w3.org/2000/svg">
<rect x="11" y="9" width="11" height="19" rx="1" fill="#0047FF"/>
<rect width="11" height="19" rx="1" fill="#5EA8FF"/>
<path d="M36.86 10.48H39.62V12.88H36.94V21H33.82V12.88H32.16V10.48H33.82V10C33.82 8.77333 34.18 7.8 34.9 7.08C35.6333 6.36 36.66 6 37.98 6C38.4467 6 38.8867 6.05333 39.3 6.16C39.7267 6.25333 40.08 6.39333 40.36 6.58L39.54 8.84C39.18 8.58667 38.76 8.46 38.28 8.46C37.3333 8.46 36.86 8.98 36.86 10.02V10.48ZM42.78 10.24H45.9V21H42.78V10.24ZM44.34 8.74C43.7667 8.74 43.3 8.57333 42.94 8.24C42.58 7.90667 42.4 7.49333 42.4 7C42.4 6.50667 42.58 6.09333 42.94 5.76C43.3 5.42667 43.7667 5.26 44.34 5.26C44.9133 5.26 45.38 5.42 45.74 5.74C46.1 6.06 46.28 6.46 46.28 6.94C46.28 7.46 46.1 7.89333 45.74 8.24C45.38 8.57333 44.9133 8.74 44.34 8.74ZM55.3316 10.08C56.6649 10.08 57.7382 10.48 58.5516 11.28C59.3782 12.08 59.7916 13.2667 59.7916 14.84V21H56.6716V15.32C56.6716 14.4667 56.4849 13.8333 56.1116 13.42C55.7382 12.9933 55.1982 12.78 54.4916 12.78C53.7049 12.78 53.0782 13.0267 52.6116 13.52C52.1449 14 51.9116 14.72 51.9116 15.68V21H48.7916V10.24H51.7716V11.5C52.1849 11.0467 52.6982 10.7 53.3116 10.46C53.9249 10.2067 54.5982 10.08 55.3316 10.08ZM73.6969 6.16V21H70.7169V19.76C69.9435 20.6933 68.8235 21.16 67.3569 21.16C66.3435 21.16 65.4235 20.9333 64.5969 20.48C63.7835 20.0267 63.1435 19.38 62.6769 18.54C62.2102 17.7 61.9769 16.7267 61.9769 15.62C61.9769 14.5133 62.2102 13.54 62.6769 12.7C63.1435 11.86 63.7835 11.2133 64.5969 10.76C65.4235 10.3067 66.3435 10.08 67.3569 10.08C68.7302 10.08 69.8035 10.5133 70.5769 11.38V6.16H73.6969ZM67.8969 18.6C68.6835 18.6 69.3369 18.3333 69.8569 17.8C70.3769 17.2533 70.6369 16.5267 70.6369 15.62C70.6369 14.7133 70.3769 13.9933 69.8569 13.46C69.3369 12.9133 68.6835 12.64 67.8969 12.64C67.0969 12.64 66.4369 12.9133 65.9169 13.46C65.3969 13.9933 65.1369 14.7133 65.1369 15.62C65.1369 16.5267 65.3969 17.2533 65.9169 17.8C66.4369 18.3333 67.0969 18.6 67.8969 18.6ZM90.3645 10.08C91.7112 10.08 92.7779 10.48 93.5645 11.28C94.3645 12.0667 94.7645 13.2533 94.7645 14.84V21H91.6445V15.32C91.6445 14.4667 91.4645 13.8333 91.1045 13.42C90.7579 12.9933 90.2579 12.78 89.6045 12.78C88.8712 12.78 88.2912 13.02 87.8645 13.5C87.4379 13.9667 87.2245 14.6667 87.2245 15.6V21H84.1045V15.32C84.1045 13.6267 83.4245 12.78 82.0645 12.78C81.3445 12.78 80.7712 13.02 80.3445 13.5C79.9179 13.9667 79.7045 14.6667 79.7045 15.6V21H76.5845V10.24H79.5645V11.48C79.9645 11.0267 80.4512 10.68 81.0245 10.44C81.6112 10.2 82.2512 10.08 82.9445 10.08C83.7045 10.08 84.3912 10.2333 85.0045 10.54C85.6179 10.8333 86.1112 11.2667 86.4845 11.84C86.9245 11.28 87.4779 10.8467 88.1445 10.54C88.8245 10.2333 89.5645 10.08 90.3645 10.08ZM108.046 10.24L103.186 21.66C102.692 22.9 102.079 23.7733 101.346 24.28C100.626 24.7867 99.7524 25.04 98.7258 25.04C98.1658 25.04 97.6124 24.9533 97.0658 24.78C96.5191 24.6067 96.0724 24.3667 95.7258 24.06L96.8658 21.84C97.1058 22.0533 97.3791 22.22 97.6858 22.34C98.0058 22.46 98.3191 22.52 98.6258 22.52C99.0524 22.52 99.3991 22.4133 99.6658 22.2C99.9324 22 100.172 21.66 100.386 21.18L100.426 21.08L95.7658 10.24H98.9858L102.006 17.54L105.046 10.24H108.046ZM112.783 21.16C111.889 21.16 111.016 21.0533 110.163 20.84C109.309 20.6133 108.629 20.3333 108.123 20L109.163 17.76C109.643 18.0667 110.223 18.32 110.903 18.52C111.583 18.7067 112.249 18.8 112.903 18.8C114.223 18.8 114.883 18.4733 114.883 17.82C114.883 17.5133 114.703 17.2933 114.343 17.16C113.983 17.0267 113.429 16.9133 112.683 16.82C111.803 16.6867 111.076 16.5333 110.503 16.36C109.929 16.1867 109.429 15.88 109.003 15.44C108.589 15 108.383 14.3733 108.383 13.56C108.383 12.88 108.576 12.28 108.963 11.76C109.363 11.2267 109.936 10.8133 110.683 10.52C111.443 10.2267 112.336 10.08 113.363 10.08C114.123 10.08 114.876 10.1667 115.623 10.34C116.383 10.5 117.009 10.7267 117.503 11.02L116.463 13.24C115.516 12.7067 114.483 12.44 113.363 12.44C112.696 12.44 112.196 12.5333 111.863 12.72C111.529 12.9067 111.363 13.1467 111.363 13.44C111.363 13.7733 111.543 14.0067 111.903 14.14C112.263 14.2733 112.836 14.4 113.623 14.52C114.503 14.6667 115.223 14.8267 115.783 15C116.343 15.16 116.829 15.46 117.243 15.9C117.656 16.34 117.863 16.9533 117.863 17.74C117.863 18.4067 117.663 19 117.263 19.52C116.863 20.04 116.276 20.4467 115.503 20.74C114.743 21.02 113.836 21.16 112.783 21.16ZM130.328 15.66C130.328 15.7 130.308 15.98 130.268 16.5H122.128C122.274 17.1667 122.621 17.6933 123.168 18.08C123.714 18.4667 124.394 18.66 125.208 18.66C125.768 18.66 126.261 18.58 126.688 18.42C127.128 18.2467 127.534 17.98 127.908 17.62L129.568 19.42C128.554 20.58 127.074 21.16 125.128 21.16C123.914 21.16 122.841 20.9267 121.908 20.46C120.974 19.98 120.254 19.32 119.748 18.48C119.241 17.64 118.988 16.6867 118.988 15.62C118.988 14.5667 119.234 13.62 119.728 12.78C120.234 11.9267 120.921 11.2667 121.788 10.8C122.668 10.32 123.648 10.08 124.728 10.08C125.781 10.08 126.734 10.3067 127.588 10.76C128.441 11.2133 129.108 11.8667 129.588 12.72C130.081 13.56 130.328 14.54 130.328 15.66ZM124.748 12.44C124.041 12.44 123.448 12.64 122.968 13.04C122.488 13.44 122.194 13.9867 122.088 14.68H127.388C127.281 14 126.988 13.46 126.508 13.06C126.028 12.6467 125.441 12.44 124.748 12.44ZM135.385 11.66C135.758 11.14 136.258 10.7467 136.885 10.48C137.525 10.2133 138.258 10.08 139.085 10.08V12.96C138.738 12.9333 138.505 12.92 138.385 12.92C137.492 12.92 136.792 13.1733 136.285 13.68C135.778 14.1733 135.525 14.92 135.525 15.92V21H132.405V10.24H135.385V11.66ZM151.991 10.24L147.451 21H144.231L139.711 10.24H142.931L145.911 17.56L148.991 10.24H151.991ZM153.264 10.24H156.384V21H153.264V10.24ZM154.824 8.74C154.251 8.74 153.784 8.57333 153.424 8.24C153.064 7.90667 152.884 7.49333 152.884 7C152.884 6.50667 153.064 6.09333 153.424 5.76C153.784 5.42667 154.251 5.26 154.824 5.26C155.398 5.26 155.864 5.42 156.224 5.74C156.584 6.06 156.764 6.46 156.764 6.94C156.764 7.46 156.584 7.89333 156.224 8.24C155.864 8.57333 155.398 8.74 154.824 8.74ZM164.48 21.16C163.333 21.16 162.3 20.9267 161.38 20.46C160.473 19.98 159.76 19.32 159.24 18.48C158.733 17.64 158.48 16.6867 158.48 15.62C158.48 14.5533 158.733 13.6 159.24 12.76C159.76 11.92 160.473 11.2667 161.38 10.8C162.3 10.32 163.333 10.08 164.48 10.08C165.613 10.08 166.6 10.32 167.44 10.8C168.293 11.2667 168.913 11.94 169.3 12.82L166.88 14.12C166.32 13.1333 165.513 12.64 164.46 12.64C163.647 12.64 162.973 12.9067 162.44 13.44C161.907 13.9733 161.64 14.7 161.64 15.62C161.64 16.54 161.907 17.2667 162.44 17.8C162.973 18.3333 163.647 18.6 164.46 18.6C165.527 18.6 166.333 18.1067 166.88 17.12L169.3 18.44C168.913 19.2933 168.293 19.96 167.44 20.44C166.6 20.92 165.613 21.16 164.48 21.16ZM181.5 15.66C181.5 15.7 181.48 15.98 181.44 16.5H173.3C173.446 17.1667 173.793 17.6933 174.34 18.08C174.886 18.4667 175.566 18.66 176.38 18.66C176.94 18.66 177.433 18.58 177.86 18.42C178.3 18.2467 178.706 17.98 179.08 17.62L180.74 19.42C179.726 20.58 178.246 21.16 176.3 21.16C175.086 21.16 174.013 20.9267 173.08 20.46C172.146 19.98 171.426 19.32 170.92 18.48C170.413 17.64 170.16 16.6867 170.16 15.62C170.16 14.5667 170.406 13.62 170.9 12.78C171.406 11.9267 172.093 11.2667 172.96 10.8C173.84 10.32 174.82 10.08 175.9 10.08C176.953 10.08 177.906 10.3067 178.76 10.76C179.613 11.2133 180.28 11.8667 180.76 12.72C181.253 13.56 181.5 14.54 181.5 15.66ZM175.92 12.44C175.213 12.44 174.62 12.64 174.14 13.04C173.66 13.44 173.366 13.9867 173.26 14.68H178.56C178.453 14 178.16 13.46 177.68 13.06C177.2 12.6467 176.613 12.44 175.92 12.44ZM184.757 21.16C184.21 21.16 183.75 20.9733 183.377 20.6C183.003 20.2267 182.817 19.76 182.817 19.2C182.817 18.6267 183.003 18.1667 183.377 17.82C183.75 17.46 184.21 17.28 184.757 17.28C185.303 17.28 185.763 17.46 186.137 17.82C186.51 18.1667 186.697 18.6267 186.697 19.2C186.697 19.76 186.51 20.2267 186.137 20.6C185.763 20.9733 185.303 21.16 184.757 21.16ZM193.874 21.16C192.728 21.16 191.694 20.9267 190.774 20.46C189.868 19.98 189.154 19.32 188.634 18.48C188.128 17.64 187.874 16.6867 187.874 15.62C187.874 14.5533 188.128 13.6 188.634 12.76C189.154 11.92 189.868 11.2667 190.774 10.8C191.694 10.32 192.728 10.08 193.874 10.08C195.008 10.08 195.994 10.32 196.834 10.8C197.688 11.2667 198.308 11.94 198.694 12.82L196.274 14.12C195.714 13.1333 194.908 12.64 193.854 12.64C193.041 12.64 192.368 12.9067 191.834 13.44C191.301 13.9733 191.034 14.7 191.034 15.62C191.034 16.54 191.301 17.2667 191.834 17.8C192.368 18.3333 193.041 18.6 193.854 18.6C194.921 18.6 195.728 18.1067 196.274 17.12L198.694 18.44C198.308 19.2933 197.688 19.96 196.834 20.44C195.994 20.92 195.008 21.16 193.874 21.16ZM205.474 21.16C204.341 21.16 203.321 20.9267 202.414 20.46C201.521 19.98 200.821 19.32 200.314 18.48C199.807 17.64 199.554 16.6867 199.554 15.62C199.554 14.5533 199.807 13.6 200.314 12.76C200.821 11.92 201.521 11.2667 202.414 10.8C203.321 10.32 204.341 10.08 205.474 10.08C206.607 10.08 207.621 10.32 208.514 10.8C209.407 11.2667 210.107 11.92 210.614 12.76C211.121 13.6 211.374 14.5533 211.374 15.62C211.374 16.6867 211.121 17.64 210.614 18.48C210.107 19.32 209.407 19.98 208.514 20.46C207.621 20.9267 206.607 21.16 205.474 21.16ZM205.474 18.6C206.274 18.6 206.927 18.3333 207.434 17.8C207.954 17.2533 208.214 16.5267 208.214 15.62C208.214 14.7133 207.954 13.9933 207.434 13.46C206.927 12.9133 206.274 12.64 205.474 12.64C204.674 12.64 204.014 12.9133 203.494 13.46C202.974 13.9933 202.714 14.7133 202.714 15.62C202.714 16.5267 202.974 17.2533 203.494 17.8C204.014 18.3333 204.674 18.6 205.474 18.6ZM227.24 10.08C228.586 10.08 229.653 10.48 230.44 11.28C231.24 12.0667 231.64 13.2533 231.64 14.84V21H228.52V15.32C228.52 14.4667 228.34 13.8333 227.98 13.42C227.633 12.9933 227.133 12.78 226.48 12.78C225.746 12.78 225.166 13.02 224.74 13.5C224.313 13.9667 224.1 14.6667 224.1 15.6V21H220.98V15.32C220.98 13.6267 220.3 12.78 218.94 12.78C218.22 12.78 217.646 13.02 217.22 13.5C216.793 13.9667 216.58 14.6667 216.58 15.6V21H213.46V10.24H216.44V11.48C216.84 11.0267 217.326 10.68 217.9 10.44C218.486 10.2 219.126 10.08 219.82 10.08C220.58 10.08 221.266 10.2333 221.88 10.54C222.493 10.8333 222.986 11.2667 223.36 11.84C223.8 11.28 224.353 10.8467 225.02 10.54C225.7 10.2333 226.44 10.08 227.24 10.08Z" fill="#0047FF"/>
</svg>
